<svg xmlns="http://www.w3.org/2000/svg" xmlns:xlink="http://www.w3.org/1999/xlink" version="1.1" width="1000" height="1000" viewBox="0 0 1000 1000" xml:space="preserve">
<desc>Created with Fabric.js 3.5.0</desc>
<defs>
</defs>
<rect x="0" y="0" width="100%" height="100%" fill="rgba(255,255,255,0)"/>
<g transform="matrix(15.1065 0 0 15.1065 500.0001 500.0001)" id="956323">
<g style="" vector-effect="non-scaling-stroke">
		<g transform="matrix(1 0 0 1 0 0)" id="Capa_1">
<path style="stroke: none; stroke-width: 1; stroke-dasharray: none; stroke-linecap: butt; stroke-dashoffset: 0; stroke-linejoin: miter; stroke-miterlimit: 4; is-custom-font: none; font-file-url: none; fill: rgb(255,219,112); fill-rule: nonzero; opacity: 1;" transform=" translate(-30, -30)" d="M 59 0 H 1 C 0.4 0 0 0.4 0 1 v 46 c 0 0.6 0.4 1 1 1 h 22 v 10 h -3 v 2 h 4 h 12 h 4 v -2 h -3 V 48 h 22 c 0.6 0 1 -0.4 1 -1 V 1 C 60 0.4 59.6 0 59 0 z M 35 58 H 25 V 48 h 10 V 58 z M 58 46 H 36 H 24 H 2 v -8 h 3 h 22 h 6 h 22 h 3 V 46 z M 33.8 16.3 l -2.9 -7.6 c -0.1 -0.3 -0.5 -0.6 -0.9 -0.6 s -0.8 0.2 -0.9 0.6 l -2.9 7.6 C 26.1 16.5 26 16.7 26 17 v 19 H 6 V 6 h 48 v 30 H 34 V 17 C 34 16.7 33.9 16.5 33.8 16.3 z M 28.4 16 l 1.5 -4.2 l 1.6 4.2 H 28.4 z M 29 18 v 18 h -1 V 18 H 29 z M 31 18 h 1 v 18 h -1 V 18 z M 58 36 h -2 V 5 c 0 -0.6 -0.4 -1 -1 -1 H 5 C 4.4 4 4 4.4 4 5 v 31 H 2 V 2 h 56 V 36 z" stroke-linecap="round"/>
</g>
		<g transform="matrix(1 0 0 1 14.5 -9)" id="Capa_1">
<path style="stroke: none; stroke-width: 1; stroke-dasharray: none; stroke-linecap: butt; stroke-dashoffset: 0; stroke-linejoin: miter; stroke-miterlimit: 4; is-custom-font: none; font-file-url: none; fill: rgb(255,219,112); fill-rule: nonzero; opacity: 1;" transform=" translate(-44.5, -21)" d="M 51 25 v -8 c 0 -0.6 -0.4 -1 -1 -1 H 38 v 1 v 1 v 3 h 2 v -3 h 4 v 3 h 2 v -3 h 3 v 6 H 38 v 2 h 12 C 50.6 26 51 25.6 51 25 z" stroke-linecap="round"/>
</g>
		<g transform="matrix(1 0 0 1 -14.5 -9)" id="Capa_1">
<path style="stroke: none; stroke-width: 1; stroke-dasharray: none; stroke-linecap: butt; stroke-dashoffset: 0; stroke-linejoin: miter; stroke-miterlimit: 4; is-custom-font: none; font-file-url: none; fill: rgb(255,219,112); fill-rule: nonzero; opacity: 1;" transform=" translate(-15.5, -21)" d="M 9 17 v 8 c 0 0.6 0.4 1 1 1 h 12 v -2 H 11 v -6 h 3 v 3 h 2 v -3 h 4 v 3 h 2 v -3 v -1 v -1 H 10 C 9.4 16 9 16.4 9 17 z" stroke-linecap="round"/>
</g>
		<g transform="matrix(1 0 0 1 -17 -1)" id="Capa_1">
<rect style="stroke: none; stroke-width: 1; stroke-dasharray: none; stroke-linecap: butt; stroke-dashoffset: 0; stroke-linejoin: miter; stroke-miterlimit: 4; is-custom-font: none; font-file-url: none; fill: rgb(255,219,112); fill-rule: nonzero; opacity: 1;" x="-1" y="-1" rx="0" ry="0" width="2" height="2"/>
</g>
		<g transform="matrix(1 0 0 1 -13 -1)" id="Capa_1">
<rect style="stroke: none; stroke-width: 1; stroke-dasharray: none; stroke-linecap: butt; stroke-dashoffset: 0; stroke-linejoin: miter; stroke-miterlimit: 4; is-custom-font: none; font-file-url: none; fill: rgb(255,219,112); fill-rule: nonzero; opacity: 1;" x="-1" y="-1" rx="0" ry="0" width="2" height="2"/>
</g>
		<g transform="matrix(1 0 0 1 -9 -1)" id="Capa_1">
<rect style="stroke: none; stroke-width: 1; stroke-dasharray: none; stroke-linecap: butt; stroke-dashoffset: 0; stroke-linejoin: miter; stroke-miterlimit: 4; is-custom-font: none; font-file-url: none; fill: rgb(255,219,112); fill-rule: nonzero; opacity: 1;" x="-1" y="-1" rx="0" ry="0" width="2" height="2"/>
</g>
		<g transform="matrix(1 0 0 1 9 -1)" id="Capa_1">
<rect style="stroke: none; stroke-width: 1; stroke-dasharray: none; stroke-linecap: butt; stroke-dashoffset: 0; stroke-linejoin: miter; stroke-miterlimit: 4; is-custom-font: none; font-file-url: none; fill: rgb(255,219,112); fill-rule: nonzero; opacity: 1;" x="-1" y="-1" rx="0" ry="0" width="2" height="2"/>
</g>
		<g transform="matrix(1 0 0 1 13 -1)" id="Capa_1">
<rect style="stroke: none; stroke-width: 1; stroke-dasharray: none; stroke-linecap: butt; stroke-dashoffset: 0; stroke-linejoin: miter; stroke-miterlimit: 4; is-custom-font: none; font-file-url: none; fill: rgb(255,219,112); fill-rule: nonzero; opacity: 1;" x="-1" y="-1" rx="0" ry="0" width="2" height="2"/>
</g>
		<g transform="matrix(1 0 0 1 17 -1)" id="Capa_1">
<rect style="stroke: none; stroke-width: 1; stroke-dasharray: none; stroke-linecap: butt; stroke-dashoffset: 0; stroke-linejoin: miter; stroke-miterlimit: 4; is-custom-font: none; font-file-url: none; fill: rgb(255,219,112); fill-rule: nonzero; opacity: 1;" x="-1" y="-1" rx="0" ry="0" width="2" height="2"/>
</g>
		<g transform="matrix(1 0 0 1 9 -17)" id="Capa_1">
<rect style="stroke: none; stroke-width: 1; stroke-dasharray: none; stroke-linecap: butt; stroke-dashoffset: 0; stroke-linejoin: miter; stroke-miterlimit: 4; is-custom-font: none; font-file-url: none; fill: rgb(255,219,112); fill-rule: nonzero; opacity: 1;" x="-1" y="-1" rx="0" ry="0" width="2" height="2"/>
</g>
		<g transform="matrix(1 0 0 1 13 -17)" id="Capa_1">
<rect style="stroke: none; stroke-width: 1; stroke-dasharray: none; stroke-linecap: butt; stroke-dashoffset: 0; stroke-linejoin: miter; stroke-miterlimit: 4; is-custom-font: none; font-file-url: none; fill: rgb(255,219,112); fill-rule: nonzero; opacity: 1;" x="-1" y="-1" rx="0" ry="0" width="2" height="2"/>
</g>
		<g transform="matrix(1 0 0 1 17 -17)" id="Capa_1">
<rect style="stroke: none; stroke-width: 1; stroke-dasharray: none; stroke-linecap: butt; stroke-dashoffset: 0; stroke-linejoin: miter; stroke-miterlimit: 4; is-custom-font: none; font-file-url: none; fill: rgb(255,219,112); fill-rule: nonzero; opacity: 1;" x="-1" y="-1" rx="0" ry="0" width="2" height="2"/>
</g>
		<g transform="matrix(1 0 0 1 -17 -17)" id="Capa_1">
<rect style="stroke: none; stroke-width: 1; stroke-dasharray: none; stroke-linecap: butt; stroke-dashoffset: 0; stroke-linejoin: miter; stroke-miterlimit: 4; is-custom-font: none; font-file-url: none; fill: rgb(255,219,112); fill-rule: nonzero; opacity: 1;" x="-1" y="-1" rx="0" ry="0" width="2" height="2"/>
</g>
		<g transform="matrix(1 0 0 1 -13 -17)" id="Capa_1">
<rect style="stroke: none; stroke-width: 1; stroke-dasharray: none; stroke-linecap: butt; stroke-dashoffset: 0; stroke-linejoin: miter; stroke-miterlimit: 4; is-custom-font: none; font-file-url: none; fill: rgb(255,219,112); fill-rule: nonzero; opacity: 1;" x="-1" y="-1" rx="0" ry="0" width="2" height="2"/>
</g>
		<g transform="matrix(1 0 0 1 -9 -17)" id="Capa_1">
<rect style="stroke: none; stroke-width: 1; stroke-dasharray: none; stroke-linecap: butt; stroke-dashoffset: 0; stroke-linejoin: miter; stroke-miterlimit: 4; is-custom-font: none; font-file-url: none; fill: rgb(255,219,112); fill-rule: nonzero; opacity: 1;" x="-1" y="-1" rx="0" ry="0" width="2" height="2"/>
</g>
</g>
</g>
</svg>